<svg width="20" height="20" viewBox="0 0 20 20" fill="none" xmlns="http://www.w3.org/2000/svg">
<g clip-path="url(#clip0)">
<path d="M4.16675 2.91669H5.83341V12.9167H4.16675V2.91669Z" fill="#00ECB9"/>
<path d="M4.79175 5H19.3751V6.66666H4.79175V5Z" fill="#00ECB9"/>
<path d="M4.79175 8.33334H19.3751V10H4.79175V8.33334Z" fill="#00ECB9"/>
<path d="M18.5417 1.66666H1.45833C0.654167 1.66666 0 2.32082 0 3.12499V14.375C0 15.1792 0.654167 15.8333 1.45833 15.8333H7.84C7.74167 16.2508 7.4825 16.9283 6.78833 17.6217C6.66917 17.7408 6.63333 17.92 6.69833 18.0758C6.7625 18.2317 6.915 18.3333 7.08333 18.3333H12.9167C13.085 18.3333 13.2375 18.2317 13.3017 18.0758C13.3658 17.92 13.33 17.7408 13.2117 17.6217C12.5192 16.9292 12.2525 16.2517 12.1492 15.8333H18.5417C19.3458 15.8333 20 15.1792 20 14.375V3.12499C20 2.32082 19.3458 1.66666 18.5417 1.66666ZM18.3333 12.5H1.66667V3.33332H18.3333V12.5Z" fill="#00ECB9"/>
</g>
<defs>
<clipPath id="clip0">
<rect width="20" height="20" fill="#00ECB9"/>
</clipPath>
</defs>
</svg>
