<svg width="20" height="20" viewBox="0 0 20 20" fill="none" xmlns="http://www.w3.org/2000/svg">
<g clip-path="url(#clip0)">
<path d="M14.2308 9.23077C14.2308 10.0675 13.9826 10.8855 13.5178 11.5813C13.0529 12.277 12.3921 12.8193 11.619 13.1395C10.846 13.4597 9.99531 13.5435 9.17462 13.3802C8.35393 13.217 7.60008 12.8141 7.0084 12.2224C6.41671 11.6307 6.01377 10.8768 5.85053 10.0561C5.68728 9.23546 5.77107 8.38479 6.09128 7.61172C6.4115 6.83865 6.95377 6.17789 7.64951 5.71301C8.34526 5.24813 9.16323 5 10 5C11.1217 5.00127 12.1971 5.44742 12.9902 6.24057C13.7833 7.03371 14.2295 8.10909 14.2308 9.23077ZM20 10C20 11.9778 19.4135 13.9112 18.3147 15.5557C17.9874 16.0455 17.6191 16.5031 17.2149 16.9242C16.262 17.9171 15.1099 18.7073 13.8268 19.2388C11.9996 19.9957 9.98891 20.1937 8.0491 19.8078C6.10929 19.422 4.32746 18.4696 2.92894 17.0711C1.53041 15.6725 0.578004 13.8907 0.192152 11.9509C-0.1937 10.0111 0.00433284 8.00042 0.761209 6.17316C1.51809 4.3459 2.79981 2.78412 4.4443 1.6853C6.08879 0.58649 8.02219 0 10 0C12.6512 0.00300303 15.193 1.05754 17.0678 2.93225C18.9425 4.80696 19.997 7.34876 20 10ZM18.4615 10C18.4626 8.62915 18.1306 7.27856 17.4941 6.06444C16.8576 4.85032 15.9356 3.80903 14.8075 3.03016C13.6794 2.25129 12.379 1.75817 11.0181 1.59323C9.65722 1.42828 8.27663 1.59646 6.99513 2.08328C5.71363 2.5701 4.5696 3.36098 3.66147 4.38789C2.75334 5.41479 2.1083 6.64697 1.78187 7.97839C1.45543 9.3098 1.45737 10.7006 1.78752 12.0311C2.11766 13.3616 2.76613 14.592 3.67712 15.6163C4.29461 14.7217 5.09535 13.9687 6.02616 13.4073C7.09656 14.4296 8.51978 15.0001 9.99995 15.0001C11.4801 15.0001 12.9034 14.4296 13.9738 13.4073C14.9046 13.9687 15.7054 14.7217 16.3229 15.6163C17.7018 14.0707 18.4632 12.0713 18.4615 10Z" fill="#00ECB9"/>
</g>
<defs>
<clipPath id="clip0">
<rect width="20" height="20" fill="#96b79c"/>
</clipPath>
</defs>
</svg>
